<svg xmlns="http://www.w3.org/2000/svg" width="36" height="16"><path fill="#DD4B38" d="M20 0v16h16v-16h-16z"/><path fill="#fff" d="M23 11.1c0 1.2 1.5 2 3.3 2 2.1 0 3.3-1.1 3.3-2.3 0-.9-.2-1.4-1.2-2.2-.3-.2-.9-.7-.9-.9 0-.3.1-.5.6-.9s.9-1.1.9-1.8-.3-1.9-.9-1.9h.9l.7-.5h-3.1c-1.6 0-2.9 1.2-2.9 2.4 0 1.3.9 2.4 2.4 2.4h.3c-.1.2-.2.2-.2.4 0 .4.2.6.4.6h-.6c-1.7.1-3 1.5-3 2.7zm1.9-6c-.1-1.1.4-1.9 1.3-1.9.8 0 1.6.9 1.7 2 .1 1.1-.4 1.8-1.2 1.8-.9 0-1.7-.8-1.8-1.9zm2.4 4.1c.7.5 1.2.8 1.4 1.4v.4c0 1-.6 1.8-2.4 1.8-1.3 0-2.2-.8-2.2-1.8s1.1-1.8 2.3-1.8c.4-.1.7-.1.9 0z"/><path fill="#fff" d="M31.7 5.9v1.6h-1.6v.5h1.6v1.6h.5v-1.6h1.6v-.5h-1.6v-1.6h-.5z"/><path fill="#3B579C" d="M0 0v16h16v-16h-16zm13 9.9h-1.7v6h-2.5v-6h-2.2v-2.1h2.2v-2.5c0-1 .5-2.5 2.5-2.5h2.4v2.1h-1.9c-.2 0-.5.1-.5.6v2.3h1.9l-.2 2.1z"/><path fill="#fff" d="M8.8 5.3v2.4h-2.2v2.1h2.2v6h2.5v-6h1.7l.2-2.1h-1.9v-2.2c0-.5.3-.6.5-.6h1.9v-2.1h-2.4c-2 0-2.5 1.5-2.5 2.5z"/></svg>